<svg width="16" height="16" viewBox="0 0 16 16" fill="none" xmlns="http://www.w3.org/2000/svg">
<rect width="16" height="16" rx="2" fill="url(#paint0_linear_794_2093)"/>
<path d="M7.74649 4.76295L6.40749 4.87995L6.26449 5.94595H7.78549L7.60349 7.27195H6.06949L5.31549 12.6799H3.52149L4.27549 7.27195H2.76749L2.94949 5.94595H4.47049L4.60049 5.02295L3.17049 5.13995L3.35249 3.81395L7.92849 3.43695L7.74649 4.76295ZM10.3335 3.76195L10.0865 3.31995H12.2705L11.0875 10.4309H9.20249L10.3335 3.76195ZM11.2175 11.3149L11.9975 8.51995H13.6485L12.5175 12.6539H7.05749L7.23949 11.3149H11.2175ZM8.95549 8.71495H7.52549L8.57849 4.04795H10.0085L8.95549 8.71495ZM12.4005 4.04795H13.9215L13.7655 7.94795H12.2315L12.4005 4.04795ZM5.70549 12.2119L6.13449 7.63595H7.34349L6.91449 12.2119H5.70549ZM2.07849 12.2119L2.91049 7.63595H4.11949L3.28749 12.2119H2.07849Z" fill="white"/>
<defs>
<linearGradient id="paint0_linear_794_2093" x1="8" y1="5.59745e-07" x2="20.9097" y2="8.78576" gradientUnits="userSpaceOnUse">
<stop stop-color="#FF5CD4"/>
<stop offset="1" stop-color="#763FE0"/>
</linearGradient>
</defs>
</svg>
