<svg width="24" height="24" viewBox="0 0 24 24" fill="none" xmlns="http://www.w3.org/2000/svg">
<rect x="13" y="13" width="8" height="8" rx="1" fill="white"/>
<rect x="13" y="13" width="8" height="8" rx="1" fill="#586B92" fill-opacity="0.6"/>
<rect x="3" y="13" width="8" height="8" rx="1" fill="white"/>
<rect x="3" y="13" width="8" height="8" rx="1" fill="#586B92" fill-opacity="0.6"/>
<path d="M16.5507 2.9201C16.7334 2.54596 17.2666 2.54596 17.4493 2.9201L18.5651 5.20504C18.6139 5.30515 18.6949 5.38606 18.795 5.43494L21.0799 6.55071C21.454 6.7334 21.454 7.2666 21.0799 7.44929L18.795 8.56506C18.6949 8.61394 18.6139 8.69485 18.5651 8.79496L17.4493 11.0799C17.2666 11.454 16.7334 11.454 16.5507 11.0799L15.4349 8.79496C15.3861 8.69485 15.3051 8.61394 15.205 8.56506L12.9201 7.44929C12.546 7.2666 12.546 6.7334 12.9201 6.55071L15.205 5.43494C15.3051 5.38606 15.3861 5.30515 15.4349 5.20504L16.5507 2.9201Z" fill="white"/>
<path d="M16.5507 2.9201C16.7334 2.54596 17.2666 2.54596 17.4493 2.9201L18.5651 5.20504C18.6139 5.30515 18.6949 5.38606 18.795 5.43494L21.0799 6.55071C21.454 6.7334 21.454 7.2666 21.0799 7.44929L18.795 8.56506C18.6949 8.61394 18.6139 8.69485 18.5651 8.79496L17.4493 11.0799C17.2666 11.454 16.7334 11.454 16.5507 11.0799L15.4349 8.79496C15.3861 8.69485 15.3051 8.61394 15.205 8.56506L12.9201 7.44929C12.546 7.2666 12.546 6.7334 12.9201 6.55071L15.205 5.43494C15.3051 5.38606 15.3861 5.30515 15.4349 5.20504L16.5507 2.9201Z" fill="#586B92" fill-opacity="0.4"/>
<rect x="3" y="3" width="8" height="8" rx="1" fill="white"/>
<rect x="3" y="3" width="8" height="8" rx="1" fill="#586B92" fill-opacity="0.6"/>
</svg>
