<svg width="32" height="32" viewBox="0 0 32 32" fill="none" xmlns="http://www.w3.org/2000/svg">
<path d="M25.3328 9.29175C24.8496 9.29175 24.4578 9.6835 24.4578 10.1667C24.4578 10.65 24.8496 11.0417 25.3328 11.0417H28.8328C29.3161 11.0417 29.7078 10.65 29.7078 10.1667C29.7078 9.6835 29.3161 9.29175 28.8328 9.29175H25.3328ZM25.3328 13.9584C24.8496 13.9584 24.4578 14.3502 24.4578 14.8334C24.4578 15.3167 24.8496 15.7084 25.3328 15.7084H27.6661C28.1494 15.7084 28.5411 15.3167 28.5411 14.8334C28.5411 14.3502 28.1494 13.9584 27.6661 13.9584H25.3328ZM19.2553 17.7243C19.4398 18.0563 19.7273 18.3193 20.0743 18.4736L22.5066 19.5546C24.0278 20.2307 25.1383 21.5882 25.4994 23.2132L25.951 25.2453C26.1938 26.3382 25.3622 27.375 24.2426 27.375H7.75754C6.63798 27.375 5.80635 26.3382 6.04922 25.2453L6.5008 23.2132C6.86192 21.5882 7.97234 20.2307 9.49355 19.5546L11.9258 18.4736C12.2729 18.3193 12.5604 18.0563 12.7449 17.7243L14.4703 14.6185C15.1371 13.4183 16.8631 13.4183 17.5299 14.6185L19.2553 17.7243Z" fill="#03C160"/>
<path d="M16.0002 4.625C12.9396 4.625 10.4585 7.10609 10.4585 10.1667V13.0833C10.4585 16.1439 12.9396 18.625 16.0002 18.625C19.0607 18.625 21.5418 16.1439 21.5418 13.0833V10.1667C21.5418 7.10609 19.0607 4.625 16.0002 4.625Z" fill="#47C29B"/>
<path d="M19.1934 17.613L17.5298 14.6184C16.863 13.4182 15.137 13.4182 14.4702 14.6184L12.8066 17.6128C13.7093 18.2504 14.811 18.625 16.0001 18.625C17.1892 18.625 18.2908 18.2505 19.1934 17.613Z" fill="#30A97C"/>
</svg>
