<svg width="32" height="32" viewBox="0 0 32 32" fill="none" xmlns="http://www.w3.org/2000/svg">
<path d="M20.0743 18.4735C19.7273 18.3192 19.4398 18.0562 19.2553 17.7242L17.5299 14.6184C16.8631 13.4182 15.1371 13.4182 14.4703 14.6184L12.7449 17.7242C12.5604 18.0562 12.2729 18.3192 11.9258 18.4735L9.49355 19.5545C7.97234 20.2306 6.86192 21.5881 6.5008 23.2131L6.04922 25.2452C5.80635 26.3381 6.63798 27.3749 7.75754 27.3749H24.2426C25.3622 27.3749 26.1938 26.3381 25.951 25.2452L25.4994 23.2131C25.1383 21.5881 24.0278 20.2306 22.5066 19.5545L20.0743 18.4735Z" fill="#03C160"/>
<path d="M15.9997 4.625C12.9391 4.625 10.458 7.10609 10.458 10.1667V13.0833C10.458 16.1439 12.9391 18.625 15.9997 18.625C19.0603 18.625 21.5413 16.1439 21.5413 13.0833V10.1667C21.5413 7.10609 19.0603 4.625 15.9997 4.625Z" fill="#47C29B"/>
<path d="M19.1934 17.613L17.5298 14.6184C16.863 13.4182 15.137 13.4182 14.4702 14.6184L12.8066 17.6128C13.7093 18.2504 14.811 18.625 16.0001 18.625C17.1892 18.625 18.2908 18.2505 19.1934 17.613Z" fill="#30A97C"/>
<path fill-rule="evenodd" clip-rule="evenodd" d="M16 20.75C16.4142 20.75 16.75 21.0858 16.75 21.5V23.5C16.75 23.9142 16.4142 24.25 16 24.25C15.5858 24.25 15.25 23.9142 15.25 23.5V21.5C15.25 21.0858 15.5858 20.75 16 20.75Z" fill="white"/>
</svg>
