<svg width="36" height="22" viewBox="0 0 36 22" fill="none" xmlns="http://www.w3.org/2000/svg">
<g clip-path="url(#clip0_1_32572)">
<rect width="36" height="22" rx="4" fill="#FFC670"/>
<path d="M17.0728 16.1458H15.5165L12 6.14575H14.1548L16.2946 12.6626L18.4345 6.14575H20.6042L17.0728 16.1458Z" fill="#472E09"/>
<path d="M21.8919 16.1458V6.14575H23.9719V16.1458H21.8919Z" fill="#472E09"/>
<path d="M34.0978 9.26373C34.0978 9.68508 34.018 10.0877 33.8584 10.4716C33.6987 10.8461 33.4643 11.1785 33.1551 11.4688C32.8558 11.7497 32.4867 11.9744 32.0477 12.1429C31.6188 12.3021 31.13 12.3817 30.5813 12.3817H28.5312V16.1458H26.4512V6.14575H30.5813C31.13 6.14575 31.6188 6.23002 32.0477 6.39856C32.4867 6.55774 32.8558 6.78246 33.1551 7.07272C33.4643 7.35362 33.6987 7.68601 33.8584 8.06991C34.018 8.44444 34.0978 8.84238 34.0978 9.26373ZM32.0178 9.26373C32.0178 8.85174 31.8781 8.51935 31.5988 8.26654C31.3295 8.01373 30.9554 7.88733 30.4765 7.88733H28.5312V10.6261H30.4765C30.9554 10.6261 31.3295 10.5044 31.5988 10.2609C31.8781 10.0081 32.0178 9.67571 32.0178 9.26373Z" fill="#472E09"/>
<rect width="11" height="22" fill="#1D213A"/>
<path d="M10 13.2182C10 13.7449 9.89313 14.2109 9.67939 14.616C9.47583 15.0212 9.19084 15.3656 8.82443 15.6492C8.46819 15.9227 8.0458 16.1354 7.55725 16.2873C7.0687 16.4291 6.53944 16.5 5.96947 16.5C5.14504 16.5 4.40712 16.3987 3.75573 16.1961C3.1145 15.9834 2.52926 15.6087 2 15.0718L3.37405 13.7044C3.7201 14.0488 4.11705 14.2868 4.56489 14.4185C5.01272 14.5502 5.49109 14.616 6 14.616C6.63104 14.616 7.10941 14.5046 7.43511 14.2818C7.76081 14.0488 7.92366 13.7145 7.92366 13.279C7.92366 12.884 7.8117 12.5801 7.58779 12.3674C7.47583 12.2661 7.3486 12.1901 7.20611 12.1395C7.07379 12.0787 6.88041 12.0281 6.62595 11.9876L5.31298 11.8052C4.38677 11.6736 3.68448 11.3748 3.20611 10.9088C2.68702 10.3923 2.42748 9.68324 2.42748 8.78177C2.42748 8.29558 2.51399 7.85497 2.68702 7.45994C2.86005 7.05479 3.10941 6.71041 3.43511 6.4268C3.76081 6.13306 4.15776 5.90516 4.62595 5.74309C5.09415 5.58103 5.62341 5.5 6.21374 5.5C6.96692 5.5 7.62341 5.59622 8.18321 5.78867C8.743 5.98112 9.257 6.30525 9.72519 6.76105L8.38168 8.08287C8.03562 7.75875 7.66412 7.55617 7.26718 7.47514C6.88041 7.38398 6.50891 7.3384 6.15267 7.3384C5.5827 7.3384 5.16031 7.47514 4.8855 7.74862C4.61069 8.01197 4.47328 8.33103 4.47328 8.7058C4.47328 8.84761 4.49873 8.98435 4.54962 9.11602C4.60051 9.2477 4.68193 9.36925 4.79389 9.48066C4.90585 9.58195 5.04326 9.67311 5.20611 9.75414C5.37913 9.82505 5.57761 9.87569 5.80153 9.90608L7.08397 10.0884C7.5827 10.1593 7.99491 10.2657 8.32061 10.4075C8.64631 10.5391 8.92621 10.7113 9.16031 10.924C9.45547 11.1975 9.66921 11.5267 9.80153 11.9116C9.93384 12.2965 10 12.732 10 13.2182Z" fill="#FFE1C5"/>
<path d="M11.5 -16.5L27 -5.79999L-3 26L-14.5 10L11.5 -16.5Z" fill="url(#paint0_linear_1_32572)"/>
</g>
<rect x="0.25" y="0.25" width="35.5" height="21.5" rx="3.75" stroke="#F9B753" stroke-width="0.5"/>
<defs>
<linearGradient id="paint0_linear_1_32572" x1="-3.5" y1="21.7" x2="-3.5" y2="0.200012" gradientUnits="userSpaceOnUse">
<stop stop-color="white" stop-opacity="0"/>
<stop offset="1" stop-color="white" stop-opacity="0.4"/>
</linearGradient>
<clipPath id="clip0_1_32572">
<rect width="36" height="22" rx="4" fill="white"/>
</clipPath>
</defs>
</svg>
