<svg width="27" height="22" viewBox="0 0 27 22" fill="none" xmlns="http://www.w3.org/2000/svg">
<g clip-path="url(#clip0_1_32531)">
<rect width="27" height="22" rx="4" fill="#FFC670"/>
<path d="M7.57275 16.1458H6.01651L2.5 6.14575H4.6548L6.79463 12.6626L8.93447 6.14575H11.1042L7.57275 16.1458Z" fill="#472E09"/>
<path d="M12.3919 16.1458V6.14575H14.4719V16.1458H12.3919Z" fill="#472E09"/>
<path d="M24.5978 9.26373C24.5978 9.68508 24.518 10.0877 24.3584 10.4716C24.1987 10.8461 23.9643 11.1785 23.6551 11.4688C23.3558 11.7497 22.9867 11.9744 22.5477 12.1429C22.1188 12.3021 21.63 12.3817 21.0813 12.3817H19.0312V16.1458H16.9512V6.14575H21.0813C21.63 6.14575 22.1188 6.23002 22.5477 6.39856C22.9867 6.55774 23.3558 6.78246 23.6551 7.07272C23.9643 7.35362 24.1987 7.68601 24.3584 8.06991C24.518 8.44444 24.5978 8.84238 24.5978 9.26373ZM22.5178 9.26373C22.5178 8.85174 22.3781 8.51935 22.0988 8.26654C21.8295 8.01373 21.4554 7.88733 20.9765 7.88733H19.0312V10.6261H20.9765C21.4554 10.6261 21.8295 10.5044 22.0988 10.2609C22.3781 10.0081 22.5178 9.67571 22.5178 9.26373Z" fill="#472E09"/>
<path d="M11.5 -16.5L27 -5.79999L-3 26L-14.5 10L11.5 -16.5Z" fill="url(#paint0_linear_1_32531)"/>
</g>
<rect x="0.25" y="0.25" width="26.5" height="21.5" rx="3.75" stroke="#F9B753" stroke-width="0.5"/>
<defs>
<linearGradient id="paint0_linear_1_32531" x1="-3.5" y1="21.7" x2="-3.5" y2="0.200012" gradientUnits="userSpaceOnUse">
<stop stop-color="white" stop-opacity="0"/>
<stop offset="1" stop-color="white" stop-opacity="0.4"/>
</linearGradient>
<clipPath id="clip0_1_32531">
<rect width="27" height="22" rx="4" fill="white"/>
</clipPath>
</defs>
</svg>
