<svg width="24" height="24" viewBox="0 0 24 24" fill="none" xmlns="http://www.w3.org/2000/svg">
<path d="M4.26261 4.07889L11.0508 1.81614C11.521 1.65942 11.7561 1.58105 11.9995 1.58105C12.243 1.58105 12.478 1.65942 12.9482 1.81614L19.7365 4.07889C20.0655 4.18859 20.2301 4.24343 20.368 4.32514C20.6827 4.51151 20.9184 4.80641 21.0309 5.15439C21.0802 5.30696 21.0975 5.47954 21.132 5.82471L21.4575 9.07933V9.07934C21.4993 9.49767 21.5202 9.70684 21.533 9.89184C21.9127 15.4055 18.4776 20.4655 13.2129 22.1473C13.0363 22.2037 12.8342 22.2614 12.4301 22.3769L12.4299 22.377L12.3938 22.3872C12.1356 22.4575 11.8634 22.4575 11.6053 22.3872L11.5692 22.377L11.569 22.3769C11.1649 22.2614 10.9628 22.2037 10.7861 22.1473C5.52151 20.4655 2.08636 15.4055 2.4661 9.89184C2.47884 9.70684 2.49976 9.49767 2.54159 9.07933L2.86705 5.82471C2.90157 5.47954 2.91883 5.30696 2.96814 5.15439C3.08063 4.80641 3.31636 4.51151 3.63102 4.32514C3.76898 4.24343 3.93352 4.18859 4.26261 4.07889Z" fill="#1F96FF"/>
<path fill-rule="evenodd" clip-rule="evenodd" d="M16.5303 8.96967C16.8232 9.26256 16.8232 9.73744 16.5303 10.0303L12.2374 14.3232C11.554 15.0066 10.446 15.0066 9.76256 14.3232L7.46967 12.0303C7.17678 11.7374 7.17678 11.2626 7.46967 10.9697C7.76256 10.6768 8.23744 10.6768 8.53033 10.9697L10.8232 13.2626C10.9209 13.3602 11.0791 13.3602 11.1768 13.2626L15.4697 8.96967C15.7626 8.67678 16.2374 8.67678 16.5303 8.96967Z" fill="white"/>
</svg>
