<svg width="24" height="24" viewBox="0 0 24 24" fill="none" xmlns="http://www.w3.org/2000/svg">
<path d="M4.00002 8.06496C4.00002 8.46279 3.84198 8.84432 3.56068 9.12562L1.74696 10.9393C1.16117 11.5251 1.16117 12.4749 1.74696 13.0607L3.56068 14.8744C3.84198 15.1557 4.00002 15.5372 4.00002 15.935V18.5C4.00002 19.3284 4.67159 20 5.50002 20H8.06498C8.4628 20 8.84433 20.158 9.12564 20.4393L10.9393 22.2531C11.5251 22.8388 12.4749 22.8388 13.0607 22.2531L14.8744 20.4393C15.1557 20.158 15.5372 20 15.935 20H18.5C19.3284 20 20 19.3284 20 18.5V15.935C20 15.5372 20.1581 15.1557 20.4394 14.8744L22.2531 13.0607C22.8388 12.4749 22.8388 11.5251 22.2531 10.9393L20.4394 9.12565C20.1581 8.84434 20 8.46281 20 8.06499V5.50001C20 4.67158 19.3284 4.00001 18.5 4.00001H15.935C15.5372 4.00001 15.1557 3.84197 14.8744 3.56067L13.0607 1.74696C12.4749 1.16117 11.5251 1.16117 10.9393 1.74696L9.12564 3.56067C8.84433 3.84197 8.4628 4.00001 8.06498 4.00001H5.50002C4.67159 4.00001 4.00002 4.67158 4.00002 5.50001V8.06496Z" fill="#208BF1"/>
<path fill-rule="evenodd" clip-rule="evenodd" d="M16.5303 8.96967C16.8232 9.26256 16.8232 9.73744 16.5303 10.0303L12.2374 14.3232C11.554 15.0066 10.446 15.0066 9.76256 14.3232L7.46967 12.0303C7.17678 11.7374 7.17678 11.2626 7.46967 10.9697C7.76256 10.6768 8.23744 10.6768 8.53033 10.9697L10.8232 13.2626C10.9209 13.3602 11.0791 13.3602 11.1768 13.2626L15.4697 8.96967C15.7626 8.67678 16.2374 8.67678 16.5303 8.96967Z" fill="white"/>
</svg>
