<svg width="24" height="24" viewBox="0 0 24 24" fill="none" xmlns="http://www.w3.org/2000/svg">
<path fill-rule="evenodd" clip-rule="evenodd" d="M10.2543 22.8039C13.8418 23.4853 16.9607 22.3934 19.2084 19.4894C21.4271 16.6183 21.5335 13.48 19.7505 10.3127C19.5491 9.95067 19.5762 9.79579 19.8763 9.51507C20.6449 8.80068 20.6468 7.90237 19.9809 7.25187C19.3149 6.60137 18.4688 6.63041 17.7177 7.40482C17.4486 7.68167 17.2762 7.70103 16.982 7.50743C15.9016 6.81726 14.6912 6.35601 13.4255 6.15222C13.3785 6.14226 13.3263 6.13755 13.273 6.13273C13.067 6.11415 12.8447 6.09409 12.8447 5.76501C12.8458 5.6822 12.8339 5.59387 12.8218 5.5052C12.7917 5.28293 12.7613 5.05848 12.9357 4.91317C13.1047 4.77232 13.2644 4.89542 13.4232 5.01781C13.4936 5.07207 13.5638 5.12618 13.6346 5.1571C14.0942 5.38236 14.6188 5.43731 15.1151 5.31217C15.6114 5.18704 16.0472 4.88993 16.345 4.47369C16.6246 4.08559 16.7702 3.61698 16.7597 3.13877C16.7492 2.66055 16.5833 2.19877 16.2869 1.82329C15.6345 1.02178 14.44 0.721698 13.5514 1.3025C12.4594 2.01496 11.4914 1.97043 10.4053 1.3025C9.48379 0.741058 8.32219 1.04695 7.67749 1.85233C7.3859 2.25025 7.23193 2.73237 7.23892 3.22564C7.2459 3.71892 7.41346 4.19648 7.71621 4.58598C8.35123 5.37394 9.41603 5.59077 10.384 5.14549C10.4442 5.11773 10.5049 5.07096 10.5659 5.02387C10.7093 4.91333 10.855 4.80104 11.0016 4.92865C11.1505 5.05825 11.1306 5.26345 11.1109 5.46525C11.103 5.54681 11.0951 5.62782 11.0984 5.70306C11.1191 6.12956 10.8206 6.15576 10.5621 6.17846C10.5061 6.18338 10.452 6.18813 10.4034 6.19674C9.196 6.38381 8.0427 6.82743 7.02118 7.49774C6.66689 7.73781 6.51008 7.64101 6.23516 7.35061C5.5382 6.61105 4.59536 6.61492 3.96035 7.28478C3.80785 7.42911 3.68871 7.605 3.61124 7.80015C3.53376 7.99531 3.49984 8.20502 3.51182 8.41465C3.5238 8.62427 3.58141 8.82875 3.68062 9.01381C3.77982 9.19886 3.91824 9.36002 4.08619 9.48603C4.51771 9.84625 4.3765 10.0774 4.17531 10.4067C4.16889 10.4172 4.16241 10.4278 4.15589 10.4385C3.39697 11.6892 3.06978 13.0618 3.00977 14.6687C3.04026 15.2103 3.1121 15.7488 3.22466 16.2795C4.21009 19.8998 6.61269 22.1127 10.2543 22.8039ZM8.33816 3.18305C8.42141 2.55385 8.74279 2.14535 9.42233 2.15503C10.1135 2.16471 10.4523 2.60225 10.4407 3.2392C10.4466 3.37456 10.424 3.50966 10.3745 3.63576C10.3249 3.76186 10.2494 3.87614 10.1528 3.97122C10.0563 4.06629 9.94088 4.14004 9.81404 4.1877C9.68721 4.23535 9.55178 4.25585 9.41652 4.24786C8.77183 4.25173 8.3943 3.86259 8.33816 3.18305ZM15.666 3.17337C15.6156 3.85678 15.2323 4.24399 14.5895 4.24399C14.4541 4.25412 14.3179 4.2356 14.1901 4.18966C14.0622 4.14372 13.9454 4.07137 13.8474 3.97732C13.7493 3.88327 13.6721 3.76963 13.6209 3.6438C13.5696 3.51796 13.5455 3.38274 13.5499 3.24694C13.5325 2.59063 13.879 2.17632 14.5624 2.15503C15.2459 2.13373 15.5672 2.54998 15.666 3.17337Z" fill="#E4474A"/>
<path d="M6.29207 12.6162C5.60285 12.682 5.14015 13.0421 5.11885 13.803C5.09755 14.5638 5.57381 15.0459 6.29595 15.0536C6.62334 15.0578 6.93924 14.9331 7.17542 14.7063C7.4116 14.4796 7.5491 14.169 7.55823 13.8417C7.54855 13.1989 6.93096 12.5562 6.29207 12.6162ZM6.2398 14.5987C6.14256 14.595 6.04712 14.5714 5.95946 14.5291C5.8718 14.4869 5.79381 14.427 5.73038 14.3532C5.66694 14.2794 5.61944 14.1933 5.59083 14.1003C5.56222 14.0073 5.55313 13.9093 5.56413 13.8127C5.56276 13.7156 5.58112 13.6193 5.6181 13.5296C5.65508 13.4399 5.7099 13.3586 5.77924 13.2907C5.84858 13.2228 5.931 13.1697 6.02148 13.1346C6.11197 13.0996 6.20864 13.0832 6.30563 13.0867C6.79157 13.0867 7.01808 13.4255 7.09552 13.8611C6.97936 14.3276 6.718 14.6451 6.2398 14.5987Z" fill="white"/>
<path d="M6.29207 12.6162C5.60285 12.682 5.14015 13.0421 5.11885 13.803C5.09755 14.5638 5.57381 15.0459 6.29595 15.0536C6.62334 15.0578 6.93924 14.9331 7.17542 14.7063C7.4116 14.4796 7.5491 14.169 7.55823 13.8417C7.54855 13.1989 6.93096 12.5562 6.29207 12.6162Z" fill="#0A0A0A"/>
<path d="M6.29207 12.6162C5.60285 12.682 5.14015 13.0421 5.11885 13.803C5.09755 14.5638 5.57381 15.0459 6.29595 15.0536C6.62334 15.0578 6.93924 14.9331 7.17542 14.7063C7.4116 14.4796 7.5491 14.169 7.55823 13.8417C7.54855 13.1989 6.93096 12.5562 6.29207 12.6162ZM6.2398 14.5987C6.14256 14.595 6.04712 14.5714 5.95946 14.5291C5.8718 14.4869 5.79381 14.427 5.73038 14.3532C5.66694 14.2794 5.61944 14.1933 5.59083 14.1003C5.56222 14.0073 5.55313 13.9093 5.56413 13.8127C5.56276 13.7156 5.58112 13.6193 5.6181 13.5296C5.65508 13.4399 5.7099 13.3586 5.77924 13.2907C5.84858 13.2228 5.931 13.1697 6.02148 13.1346C6.11197 13.0996 6.20864 13.0832 6.30563 13.0867C6.79157 13.0867 7.01808 13.4255 7.09552 13.8611C6.97936 14.3276 6.718 14.6451 6.2398 14.5987Z" fill="white"/>
<path d="M17.6638 12.6069C17.0056 12.6069 16.3764 13.1877 16.4228 13.8557C16.4732 14.5623 16.8604 15.0173 17.6038 15.0502C17.7666 15.0635 17.9304 15.0431 18.085 14.9902C18.2396 14.9373 18.3815 14.853 18.502 14.7427C18.6225 14.6324 18.7189 14.4984 18.7852 14.3491C18.8516 14.1998 18.8863 14.0384 18.8874 13.875C18.8886 13.546 18.7614 13.2295 18.5329 12.9927C18.3045 12.7559 17.9927 12.6175 17.6638 12.6069Z" fill="#0A0A0A"/>
<path d="M17.6638 12.6069C17.0056 12.6069 16.3764 13.1877 16.4228 13.8557C16.4732 14.5623 16.8604 15.0173 17.6038 15.0502C17.7666 15.0635 17.9304 15.0431 18.085 14.9902C18.2396 14.9373 18.3815 14.853 18.502 14.7427C18.6225 14.6324 18.7189 14.4984 18.7852 14.3491C18.8516 14.1998 18.8863 14.0384 18.8874 13.875C18.8886 13.546 18.7614 13.2295 18.5329 12.9927C18.3045 12.7559 17.9927 12.6175 17.6638 12.6069ZM17.7083 14.6049C17.5071 14.609 17.3124 14.533 17.1672 14.3936C17.0219 14.2541 16.938 14.0627 16.9339 13.8615C16.9298 13.6602 17.0059 13.4655 17.1453 13.3203C17.2847 13.1751 17.4761 13.0912 17.6774 13.0871C18.113 13.0871 18.355 13.3852 18.3724 13.6117C18.4034 14.3009 18.1072 14.5797 17.7083 14.6049Z" fill="white"/>
<path d="M12.0189 11.6445C10.4701 11.6309 8.9871 13.1314 8.94644 14.7615C8.90385 16.167 10.0655 17.0382 11.9647 17.0382C13.9259 17.0382 14.9829 16.2638 14.9984 14.8157C15.0178 13.1662 13.6026 11.66 12.0189 11.6445Z" fill="white"/>
<path d="M11.964 14.5039C11.3832 14.4923 10.5836 13.8437 10.6862 13.3927C10.845 12.7073 11.4606 12.6454 12.0201 12.655C12.5796 12.6647 13.203 12.7325 13.2998 13.4469C13.356 13.9231 12.5487 14.5213 11.964 14.5039Z" fill="#0A0A0A"/>
</svg>
