<svg width="16" height="16" viewBox="0 0 16 16" fill="none" xmlns="http://www.w3.org/2000/svg">
<rect width="16" height="16" rx="2" fill="url(#paint0_linear_370_8364)"/>
<path d="M10.1623 4.89482H10.9418L11.4823 3.48682H13.4435L12.84 4.89482H13.6698L13.5063 6.0011H12.7898L12.5509 7.7611H13.5063L13.3303 8.95539H12.3749L11.8846 12.5005H9.91089L10.4012 8.95539H9.24461L8.25147 12.5131H6.26518L7.25832 8.95539H6.64232L6.81832 7.7611H7.59775L8.10061 6.0011H7.28347L7.44689 4.89482H8.01261L7.84918 3.95196L7.47204 3.48682H9.93604L10.1623 4.89482ZM4.19089 5.07082L4.36689 3.85139L4.06518 3.49939H6.42861L6.20232 5.07082H7.01947L6.85604 6.22739H6.03889L5.83775 7.68567L6.56689 7.50967L6.37832 8.77939L5.66175 8.95539L5.28461 11.6834C5.25108 11.9181 5.14213 12.115 4.95775 12.2742C4.77337 12.4335 4.55966 12.5131 4.31661 12.5131H2.33032L3.31089 11.3817L3.57489 9.45825L2.74518 9.65939L2.92118 8.38967L3.75089 8.18853L4.02747 6.22739H3.23547L3.39889 5.07082H4.19089ZM9.58404 7.7611H10.5772L10.816 6.0011H10.0869L9.58404 7.7611Z" fill="white"/>
<defs>
<linearGradient id="paint0_linear_370_8364" x1="1.92" y1="1.4" x2="16.2242" y2="3.82071" gradientUnits="userSpaceOnUse">
<stop stop-color="#FFBC10"/>
<stop offset="1" stop-color="#FF9310"/>
</linearGradient>
</defs>
</svg>
