<svg width="32" height="32" viewBox="0 0 32 32" fill="none" xmlns="http://www.w3.org/2000/svg">
<path d="M12.0392 23.407C11.5184 24.4408 12.0469 25.288 13.2051 25.288H28.6502C29.8084 25.288 30.3292 24.4408 29.8161 23.407L22.0975 7.96191C21.4523 6.67936 20.4107 6.67936 19.7656 7.96191L12.0392 23.407ZM28.3297 23.788H13.5258L20.9315 8.9841L28.3297 23.788Z" fill="#1E2028"/>
<path d="M11.1029 8.99169L3.70105 23.788H18.5048L11.1029 8.99169ZM19.9914 23.407C20.5044 24.4408 19.9837 25.288 18.8255 25.288H3.38042C2.22224 25.288 1.69367 24.4408 2.21447 23.407L9.94087 7.96191C10.5783 6.67936 11.6276 6.67936 12.265 7.96191L19.9914 23.407Z" fill="#1E2028"/>
<path d="M13.534 23.788L16.0195 18.817L18.505 23.788H13.534ZM12.0475 23.4069C11.5267 24.4408 12.0552 25.288 13.2134 25.288H18.8333C19.9838 25.288 20.5045 24.4408 19.9915 23.4069L16.0195 15.4629L12.0475 23.4069Z" fill="#03C160"/>
</svg>
