<svg width="32" height="32" viewBox="0 0 32 32" fill="none" xmlns="http://www.w3.org/2000/svg">
<path d="M4.25 16C4.25 9.7543 9.54392 4.75 16 4.75C22.4561 4.75 27.75 9.7543 27.75 16C27.75 22.2457 22.4561 27.25 16 27.25C14.4858 27.25 13.0364 26.9754 11.7045 26.4744L11.6761 26.4638L11.6562 26.4688L7.76624 27.4532C7.60154 27.4949 7.43289 27.5376 7.28812 27.5607C7.13318 27.5853 6.9079 27.6058 6.66649 27.5237C6.3599 27.4194 6.10576 27.2002 5.95757 26.9122C5.84089 26.6855 5.82802 26.4597 5.82965 26.3028C5.83117 26.1562 5.84864 25.9831 5.86571 25.8141L6.22285 22.2703C6.22375 22.2614 6.22457 22.2532 6.22533 22.2456C6.219 22.2364 6.21202 22.2264 6.2042 22.2151C4.9707 20.4361 4.25 18.2986 4.25 16Z" fill="#03C160"/>
<path d="M7.76582 27.4533C7.60112 27.495 7.43246 27.5377 7.2877 27.5607C7.13275 27.5854 6.90747 27.6058 6.66607 27.5237C6.35948 27.4194 6.10533 27.2002 5.95715 26.9123C5.84047 26.6856 5.8276 26.4597 5.82923 26.3029C5.83074 26.1563 5.84822 25.9832 5.86529 25.8142L5.86529 25.8142L6.22243 22.2704L6.24113 22.065C6.37835 20.5583 6.44696 19.805 6.796 19.4298C7.09986 19.1031 7.53336 18.9287 7.97879 18.9538C8.49045 18.9827 9.06174 19.4785 10.2043 20.4701L12.6385 22.5827C13.5942 23.4122 14.0721 23.8269 14.1999 24.2286C14.3729 24.7723 14.2225 25.3669 13.8119 25.763C13.5085 26.0557 12.8909 26.1934 11.6558 26.4689L7.76582 27.4533Z" fill="#30A97C"/>
<path d="M6.22477 22.2471L6.22243 22.2704L5.86529 25.8142C5.84822 25.9832 5.83074 26.1563 5.82923 26.3029C5.8276 26.4597 5.84047 26.6856 5.95715 26.9123C6.10533 27.2003 6.35948 27.4194 6.66607 27.5237C6.90747 27.6058 7.13275 27.5854 7.2877 27.5607C7.43246 27.5377 7.60112 27.495 7.76582 27.4533L11.6558 26.4689L11.6757 26.4639L11.7041 26.4745C13.036 26.9755 14.4854 27.2501 15.9996 27.2501C11.9388 27.2501 8.33785 25.2703 6.22477 22.2471Z" fill="#47C29B"/>
<path d="M12.5 17C13.3284 17 14 16.2165 14 15.25C14 14.2835 13.3284 13.5 12.5 13.5C11.6716 13.5 11 14.2835 11 15.25C11 16.2165 11.6716 17 12.5 17ZM19.5 17C20.3284 17 21 16.2165 21 15.25C21 14.2835 20.3284 13.5 19.5 13.5C18.6716 13.5 18 14.2835 18 15.25C18 16.2165 18.6716 17 19.5 17Z" fill="white"/>
</svg>
