<svg width="32" height="32" viewBox="0 0 32 32" fill="none" xmlns="http://www.w3.org/2000/svg">
<rect x="4.25" y="6.20825" width="23.5" height="19.5833" rx="2.4" fill="#03C160"/>
<path d="M24.6289 6.25C25.0243 6.24999 25.3653 6.24998 25.6463 6.27293C25.9428 6.29715 26.2377 6.35064 26.5215 6.49524C26.9448 6.71095 27.289 7.05516 27.5048 7.47852C27.6494 7.76231 27.7028 8.05722 27.7271 8.35373C27.75 8.63463 27.75 8.97567 27.75 9.37098V9.37108V22.6289V22.629C27.75 23.0243 27.75 23.3654 27.7271 23.6463C27.7028 23.9428 27.6494 24.2377 27.5048 24.5215C27.289 24.9448 26.9448 25.2891 26.5215 25.5048C26.2377 25.6494 25.9428 25.7029 25.6463 25.7271C25.3654 25.75 25.0243 25.75 24.629 25.75H24.6289H12.5L20.5 6.25H24.6289H24.6289Z" fill="#30A97C"/>
<path d="M24.6289 6.25C25.0243 6.24999 25.3653 6.24998 25.6463 6.27293C25.9428 6.29715 26.2377 6.35064 26.5215 6.49524C26.9448 6.71095 27.289 7.05516 27.5048 7.47852C27.6494 7.76231 27.7028 8.05722 27.7271 8.35373C27.75 8.63463 27.75 8.97567 27.75 9.37098V9.37108V22.6289V22.629C27.75 23.0243 27.75 23.3654 27.7271 23.6463C27.7028 23.9428 27.6494 24.2377 27.5048 24.5215C27.289 24.9448 26.9448 25.2891 26.5215 25.5048C26.2377 25.6494 25.9428 25.7029 25.6463 25.7271C25.3654 25.75 25.0243 25.75 24.629 25.75H24.6289H19.5L24 6.25H24.6289H24.6289Z" fill="#47C29B"/>
<path d="M8.75244 12.3756C9.1434 12.2387 9.57126 12.4447 9.7081 12.8357L11.0419 16.6465L12.3756 12.8357C12.5125 12.4447 12.9403 12.2387 13.3313 12.3756C13.7223 12.5124 13.9283 12.9403 13.7914 13.3312L11.7498 19.1646C11.6445 19.4654 11.3606 19.6668 11.0419 19.6668C10.7232 19.6668 10.4393 19.4654 10.334 19.1646L8.29231 13.3312C8.15548 12.9403 8.36148 12.5124 8.75244 12.3756ZM16.0002 12.3335C16.4144 12.3335 16.7502 12.6692 16.7502 13.0835V18.9168C16.7502 19.331 16.4144 19.6668 16.0002 19.6668C15.586 19.6668 15.2502 19.331 15.2502 18.9168V13.0835C15.2502 12.6692 15.586 12.3335 16.0002 12.3335ZM18.1669 13.0835C18.1669 12.6692 18.5027 12.3335 18.9169 12.3335H21.1044C22.5656 12.3335 23.7502 13.518 23.7502 14.9793C23.7502 16.4405 22.5656 17.6251 21.1044 17.6251H19.6669V18.9168C19.6669 19.331 19.3311 19.6668 18.9169 19.6668C18.5027 19.6668 18.1669 19.331 18.1669 18.9168V13.0835ZM19.6669 16.1251H21.1044C21.7372 16.1251 22.2502 15.6121 22.2502 14.9793C22.2502 14.3465 21.7372 13.8335 21.1044 13.8335H19.6669V16.1251Z" fill="white"/>
</svg>
