<svg width="32" height="32" viewBox="0 0 32 32" fill="none" xmlns="http://www.w3.org/2000/svg">
<path d="M15.9997 4.75C13.0081 4.75 10.583 7.17512 10.583 10.1667V13.0833C10.583 14.9531 11.5304 16.6016 12.9712 17.575L12.6177 18.2114C12.5738 18.2904 12.5053 18.353 12.4227 18.3898L9.67909 19.6091C8.10959 20.3067 6.96391 21.7073 6.59133 23.3839L6.25052 24.9175C5.98452 26.1145 6.89536 27.25 8.12155 27.25H23.8794C25.1056 27.25 26.0165 26.1145 25.7505 24.9175L25.4097 23.3839C25.0371 21.7073 23.8914 20.3067 22.3219 19.6091L19.5783 18.3898C19.4957 18.353 19.4272 18.2904 19.3833 18.2114L19.0293 17.5742C20.4695 16.6007 21.4163 14.9526 21.4163 13.0833V10.1667C21.4163 7.17512 18.9912 4.75 15.9997 4.75ZM17.6801 18.2343L18.0721 18.9398C18.2741 19.3035 18.5889 19.5915 18.9691 19.7605L21.7127 20.9799C22.8476 21.4842 23.676 22.497 23.9454 23.7093L24.2862 25.2429C24.344 25.5032 24.146 25.75 23.8794 25.75H8.12155C7.85498 25.75 7.65698 25.5032 7.7148 25.2429L8.05561 23.7093C8.32502 22.497 9.15343 21.4842 10.2883 20.9799L13.0319 19.7605C13.412 19.5915 13.7269 19.3035 13.9289 18.9398L14.3206 18.2347C14.8493 18.4069 15.4136 18.5 15.9997 18.5C16.5863 18.5 17.1511 18.4068 17.6801 18.2343ZM12.083 10.1667C12.083 8.00355 13.8366 6.25 15.9997 6.25C18.1628 6.25 19.9163 8.00355 19.9163 10.1667V13.0833C19.9163 15.2464 18.1628 17 15.9997 17C13.8366 17 12.083 15.2464 12.083 13.0833V10.1667Z" fill="#1E2028"/>
<path d="M16 20.75C16.4142 20.75 16.75 21.0858 16.75 21.5V23.5C16.75 23.9142 16.4142 24.25 16 24.25C15.5858 24.25 15.25 23.9142 15.25 23.5V21.5C15.25 21.0858 15.5858 20.75 16 20.75Z" fill="#03C160"/>
</svg>
