<svg width="32" height="32" viewBox="0 0 32 32" fill="none" xmlns="http://www.w3.org/2000/svg">
<path d="M16 6.25C10.3058 6.25 5.75 10.6477 5.75 16C5.75 17.9791 6.36925 19.8206 7.43687 21.3604C7.44147 21.367 7.44649 21.3742 7.45185 21.3818C7.50257 21.4543 7.58436 21.5712 7.63743 21.6987C7.68351 21.8095 7.7122 21.9205 7.72556 22.0397C7.74091 22.1767 7.72655 22.3133 7.71777 22.3968C7.71687 22.4054 7.71603 22.4133 7.71529 22.4207L7.36069 25.9394C7.35817 25.9643 7.3558 25.9879 7.35356 26.0103C7.37539 26.0048 7.39838 25.999 7.4227 25.9929L11.2882 25.0147C11.2943 25.0131 11.3009 25.0114 11.308 25.0096C11.3773 24.9918 11.4908 24.9626 11.6089 24.9548C11.7117 24.9481 11.8102 24.9536 11.9116 24.9718C12.0283 24.9928 12.1418 25.0359 12.212 25.0626C12.2194 25.0654 12.2263 25.0681 12.2326 25.0705C13.3974 25.5086 14.668 25.75 16 25.75C21.6942 25.75 26.25 21.3523 26.25 16C26.25 10.6477 21.6942 6.25 16 6.25ZM7.02499 26.0827C7.02503 26.0827 7.02613 26.0826 7.02822 26.0825L7.02499 26.0827ZM7.32997 26.3428C7.3302 26.3448 7.33027 26.3459 7.33024 26.346L7.32997 26.3428ZM4.25 16C4.25 9.7543 9.54392 4.75 16 4.75C22.4561 4.75 27.75 9.7543 27.75 16C27.75 22.2457 22.4561 27.25 16 27.25C14.4858 27.25 13.0364 26.9754 11.7045 26.4744L11.6761 26.4638L11.6562 26.4688L7.76624 27.4532C7.60154 27.4949 7.43289 27.5376 7.28812 27.5607C7.13318 27.5853 6.9079 27.6058 6.66649 27.5237C6.3599 27.4194 6.10576 27.2002 5.95757 26.9122C5.84089 26.6855 5.82802 26.4597 5.82965 26.3028C5.83117 26.1562 5.84864 25.9831 5.86571 25.8141L6.22285 22.2703C6.22375 22.2614 6.22457 22.2532 6.22533 22.2456C6.219 22.2364 6.21202 22.2264 6.2042 22.2151C4.9707 20.4361 4.25 18.2986 4.25 16Z" fill="#1E2028"/>
<path d="M12.5 17C13.3284 17 14 16.2165 14 15.25C14 14.2835 13.3284 13.5 12.5 13.5C11.6716 13.5 11 14.2835 11 15.25C11 16.2165 11.6716 17 12.5 17ZM19.5 17C20.3284 17 21 16.2165 21 15.25C21 14.2835 20.3284 13.5 19.5 13.5C18.6716 13.5 18 14.2835 18 15.25C18 16.2165 18.6716 17 19.5 17Z" fill="#03C160"/>
</svg>
