<svg width="32" height="32" viewBox="0 0 32 32" fill="none" xmlns="http://www.w3.org/2000/svg">
<path d="M19.7661 7.96191L12.0397 23.407C11.5189 24.4408 12.0474 25.288 13.2056 25.288H28.6507C29.8088 25.288 30.3296 24.4408 29.8166 23.407L22.098 7.96191C21.4528 6.67936 20.4112 6.67936 19.7661 7.96191Z" fill="#47C29B"/>
<path d="M9.94136 7.96191L2.21496 23.407C1.69416 24.4408 2.22273 25.288 3.38091 25.288H18.826C19.9841 25.288 20.5049 24.4408 19.9919 23.407L12.2655 7.96191C11.6281 6.67936 10.5788 6.67936 9.94136 7.96191Z" fill="#03C160"/>
<path d="M19.9915 23.4069L16.0195 15.4629L12.0475 23.4069C11.5267 24.4408 12.0552 25.288 13.2134 25.288H18.8333C19.9838 25.288 20.5045 24.4408 19.9915 23.4069Z" fill="#30A97C"/>
</svg>
